<svg width="212" height="31" viewBox="0 0 212 31" fill="none" xmlns="http://www.w3.org/2000/svg">
<path d="M0.878326 21.3283C1.56784 23.7578 3.13552 25.7841 5.31465 27.316L17.1763 1.66077C6.00091 4.95874 -1.27804 13.7078 0.878326 21.3283Z" fill="url(#paint0_linear_222_12743)"/>
<path d="M32.8334 1.394C29.7436 0.444288 26.1269 0.141812 22.3248 0.597154L18.7568 11.3009C26.5172 10.1366 30.9827 4.40576 32.8334 1.39726V1.394Z" fill="url(#paint1_linear_222_12743)"/>
<path d="M16.9649 20.1378L14.054 30.4285C17.5601 30.848 21.4663 30.5553 25.418 29.4365C26.0262 29.2641 26.6246 29.0755 27.2101 28.8706C23.5055 19.3116 16.9649 20.1345 16.9649 20.1345V20.1378Z" fill="url(#paint2_linear_222_12743)"/>
<path d="M42.0541 9.6682C41.1824 6.5914 38.9025 4.16508 35.7541 2.56488C28.5434 12.7287 21.7458 15.9487 21.7458 15.9487C29.8704 16.1113 34.5117 21.0387 36.4111 23.6569C41.0686 19.6207 43.4006 14.4265 42.0541 9.6682Z" fill="url(#paint3_linear_222_12743)"/>
<path d="M21.7489 15.9486C21.7489 15.9486 28.5433 12.7287 35.7572 2.56485C34.8498 2.103 33.874 1.71271 32.8365 1.39397C30.9891 4.40573 26.5203 10.1333 18.7599 11.2976L22.3279 0.593872C20.7504 0.782513 19.1405 1.10125 17.524 1.55985C17.4102 1.59237 17.2964 1.62489 17.1793 1.66067L5.31763 27.3159C7.63987 28.9486 10.6581 30.0219 14.0537 30.4285L16.9646 20.1378C16.9646 20.1378 23.5053 19.3149 27.2098 28.8738C30.8037 27.6249 33.9391 25.8068 36.4142 23.6602C34.5148 21.0452 29.8735 16.1145 21.7489 15.9519V15.9486Z" fill="white"/>
<path d="M64.7003 12.5501L69.7481 13.2136L73.4396 29.2156H66.4664L63.5619 16.9377L60.4071 29.2156H53.4338L60.6282 1.31621H67.6015L64.697 12.5501H64.7003ZM81.047 11.8866H84.9597V17.7248H81.047V30.1588H74.1031V4.28243L72.4931 0.844604H81.047V11.8899V11.8866Z" fill="#231F20"/>
<path d="M98.3075 4.27909C98.5905 4.65963 98.7499 5.00439 98.6848 5.47924L95.2437 28.8025L88.9015 29.3716L92.3101 6.99813H86.0621L85.4312 1.31612H95.3088C95.8129 1.31612 96.1935 1.50476 96.4764 1.8853L98.3075 4.28235V4.27909ZM107.522 0.841268V30.1587H101.524V23.7222H96.8212L97.6115 18.0402H101.524V13.1485H98.3368L99.189 7.46648H101.524V4.11973L99.9143 0.838013H107.518L107.522 0.841268ZM108.943 0.841268H114.941V30.1587H108.943V0.841268Z" fill="#231F20"/>
<path d="M124.086 14.443H117.175L121.972 6.52011H117.965V1.31296H135.89V6.52011H128.884L128.22 7.62594L132.322 8.10079L136.361 14.443H129.134L126.61 10.3092L124.086 14.443ZM126.516 25.8981H146.493V30.1588H122.981C122.506 30.1588 122.129 29.9995 121.813 29.6547L120.047 27.791C119.731 27.443 119.572 27.0983 119.572 26.6234V20.8471H139.074V19.9299H119.572V15.6692H146.018V24.9484H126.516V25.8949V25.8981ZM139.077 7.31045V4.28243L137.467 0.844604H146.021V14.7293H139.077V12.677H136.364L132.956 7.31045H139.077Z" fill="#231F20"/>
<path d="M167.506 8.76104V21.7318C167.506 26.7177 164.065 29.5279 158.575 29.5279C153.085 29.5279 149.644 26.7177 149.644 21.7318V8.76104C149.644 3.77505 153.085 0.968199 158.575 0.968199C164.065 0.968199 167.506 3.77505 167.506 8.76104ZM160.566 8.76104C160.566 7.59341 159.714 6.80632 158.578 6.80632C157.443 6.80632 156.591 7.59341 156.591 8.76104V21.7318C156.591 22.8994 157.443 23.6897 158.578 23.6897C159.714 23.6897 160.566 22.8994 160.566 21.7318V8.76104ZM177.732 30.1588H170.788V4.28243L169.178 0.844604H177.732V30.1621V30.1588Z" fill="#231F20"/>
<path d="M190.921 12.5501L195.969 13.2136L199.66 29.2156H192.687L189.783 16.9377L186.628 29.2156H179.655L186.849 1.31621H193.822L190.918 12.5501H190.921ZM207.268 11.8866H211.18V17.7248H207.268V30.1588H200.324V4.28243L198.714 0.844604H207.268V11.8899V11.8866Z" fill="#231F20"/>
<defs>
<linearGradient id="paint0_linear_222_12743" x1="10.5088" y1="20.5737" x2="8.31665" y2="7.41433" gradientUnits="userSpaceOnUse">
<stop stop-color="#362979"/>
<stop offset="0.28" stop-color="#22469D"/>
<stop offset="0.53" stop-color="#6153A3"/>
<stop offset="0.75" stop-color="#40337A"/>
<stop offset="1" stop-color="#232162"/>
</linearGradient>
<linearGradient id="paint1_linear_222_12743" x1="18.7568" y1="5.84333" x2="32.8334" y2="5.84333" gradientUnits="userSpaceOnUse">
<stop stop-color="#6A1143"/>
<stop offset="0.08" stop-color="#821544"/>
<stop offset="0.19" stop-color="#9C1945"/>
<stop offset="0.3" stop-color="#AF1C47"/>
<stop offset="0.41" stop-color="#BB1E47"/>
<stop offset="0.53" stop-color="#BF1F48"/>
<stop offset="1" stop-color="#7D1E5E"/>
</linearGradient>
<linearGradient id="paint2_linear_222_12743" x1="14.0507" y1="25.3644" x2="27.2068" y2="25.3644" gradientUnits="userSpaceOnUse">
<stop stop-color="#6A1143"/>
<stop offset="0.08" stop-color="#821544"/>
<stop offset="0.19" stop-color="#9C1945"/>
<stop offset="0.3" stop-color="#AF1C47"/>
<stop offset="0.41" stop-color="#BB1E47"/>
<stop offset="0.53" stop-color="#BF1F48"/>
<stop offset="1" stop-color="#7D1E5E"/>
</linearGradient>
<linearGradient id="paint3_linear_222_12743" x1="21.7491" y1="13.1125" x2="42.4346" y2="13.1125" gradientUnits="userSpaceOnUse">
<stop stop-color="#6A1143"/>
<stop offset="0.08" stop-color="#821544"/>
<stop offset="0.19" stop-color="#9C1945"/>
<stop offset="0.3" stop-color="#AF1C47"/>
<stop offset="0.41" stop-color="#BB1E47"/>
<stop offset="0.53" stop-color="#BF1F48"/>
<stop offset="1" stop-color="#7D1E5E"/>
</linearGradient>
</defs>
</svg>
